<svg version="1" xmlns="http://www.w3.org/2000/svg" width="1066.667" height="1066.667" viewBox="0 0 800.000000 800.000000"><path d="M461.5 86.7c-1.1.2-11.7 3.7-23.5 7.6-11.8 3.9-21.7 7.2-22 7.3-.3 0-1.8.6-3.3 1.2-1.5.7-4 1.5-5.5 1.8-1.5.4-3.1.9-3.7 1.3-.5.3-1.4.6-2 .7-.5.2-7.7 2.6-16 5.4-8.2 2.9-15.4 5.3-16 5.4-.5.2-1.7.6-2.5.9-.8.3-5.1 1.7-9.5 3.2-8.6 2.9-12.6 5-16.5 8.7-2.1 2-3.6 2.3-10 2.4-6.9.1-20.4 3.6-28.5 7.4-1.1.5-6 2.1-11 3.7-4.9 1.5-9.3 3.2-9.6 3.6-.3.5-.9.8-1.3.7-.4-.1-4.6 1-9.4 2.6-4.8 1.5-8.9 2.8-9.2 2.9-.3.1-1.2.4-2 .8-.8.3-9.8 3.4-20 6.8-27.9 9.3-30.9 10.6-36 15.8-4.3 4.4-7.4 9.5-8.7 14.4-.3 1.2-.7 29.6-.8 63.2-.2 62.7-.2 63.2 3.6 69.8.8 1.4.6 2.8-.6 5.3-2.8 5.9-2.9 7.2-3.2 34.8-.1 14.8-.5 27.1-.7 27.4-.3.2-.1 1.3.4 2.3.6 1 .7 2 .3 2.2-.5.3-.6 4.1-.3 8.6.3 4.4.3 8.9 0 10.1-.3 1.1-.3 6.5 0 12s.3 10.9 0 12c-.5 2.1.5 21.1 1.3 24 .2.8 1 3.1 1.9 5 1.4 3.2 1.3 3.8-.5 8-1.4 3.2-2.1 7.3-2.3 13.9-.2 5.2-.6 9.6-.8 9.9-.3.2-.1 1.3.5 2.4.7 1.3.7 2.3 0 3.2-.6.7-.8 1.6-.5 1.9.8.7.8 15.6 0 16.4-.3.3-.1 1.4.5 2.4.6 1.3.6 2.5-.1 3.8-.6 1.3-.7 2.2 0 2.6.6.3.6 1.5 0 3s-.6 2.7 0 3c.6.3.6 1.5 0 3s-.6 2.7 0 3c.6.3.6 1.5 0 3-.6 1.6-.6 2.7.1 3.1.7.4.7 1 0 1.8-.6.7-.8 1.5-.5 1.9.4.4.6 11.4.3 18.7-.1.8-.1 4.4 0 8v8c-.1.8.1 5.4.4 10.1.5 6.8 1.2 9.7 3.3 13.5 3.2 6 6.7 9.9 11.5 12.9 3 2 3.8 3.1 4.3 6.8 1.3 8.3 6 14.4 18.6 23.9 6.3 4.8 12.1 8.7 12.8 8.7.6.1 1.2.5 1.2 1 0 .4 2.1 2.2 4.8 3.9 4.4 2.8 28.4 20 30.7 21.9.6.5 3.3 2.4 6 4.3 2.8 1.8 5.2 3.6 5.5 3.9.3.3 2.8 2.2 5.5 4.1 2.8 1.9 5.2 3.8 5.3 4.2.2.4.9.8 1.5.8.7.1 2.8 1.4 4.7 3 1.9 1.7 3.8 3 4.4 3 .5 0 1.4.6 2 1.3 1.7 2 9.5 4.6 15.2 5.1 4.7.3 15-2 23.9-5.4 1.7-.6 3.1-1.1 3.2-1.1.2 0 1.8-.6 3.8-1.5 1.9-.8 3.5-1.2 3.5-.9 0 .3 1.2-.1 2.8-.8 2.1-1.2 51.9-18.2 55.7-19.1.6-.2 1.7-.6 2.5-.9.8-.3 5.1-1.8 9.5-3.3 10.3-3.5 12.8-4.8 17.6-9.1 4-3.6 8.2-11.1 9.3-16.8.5-2.1 1.9-3.8 4.9-5.7 5.6-3.5 9.7-8.8 12.3-15.6 2-5.3 2.1-7.3 2.2-52.1.1-25.6.2-49.8.2-53.8v-7.1l12.8-4.3c7-2.4 13.2-4.4 13.7-4.5.6-.1 4.8-1.6 9.5-3.3 4.6-1.7 9.3-3.3 10.5-3.6 1.1-.2 4.5-1.3 7.5-2.4 3-1.1 15-5.2 26.5-9.1 11.6-4 21.2-7.6 21.3-8.1.2-.5.9-.9 1.6-.9 1.4 0 9.4-8.3 11.2-11.5.6-1.1 1.7-4.3 2.3-7.2.9-3.5 1.9-5.4 3.2-5.8 3.3-1.1 11.5-9.9 13.9-15 2.2-4.7 2.3-6.4 2.7-31.5.2-14.6.3-27 .3-27.5 0-.6-.1-6.9-.3-14-.1-7.2.1-14.2.5-15.8.3-1.5.4-2.7 0-2.7s-.7-6.6-.6-14.8c.1-13.8-1.3-24.6-3.4-26.2-.4-.3-1.2-1.4-1.9-2.6-.9-1.7-.6-3.1 2-8.4 3.1-6.2 3.1-6.4 3.3-23.6.1-9.5.5-17.7.8-18.3.4-.6.4-1.1-.1-1.1-.4 0-.7-6.4-.6-14.2.1-7.9.2-15.7.3-17.3 0-1.7-.1-10.7-.1-20-.1-9.4 0-18.1.1-19.5.3-3.7-.8-10.9-2.6-16.3-1.2-3.5-3.3-6.6-7.6-10.8-3.4-3.2-6.7-5.9-7.4-5.9-.8 0-1.4-.4-1.4-.8s-1.2-1.5-2.7-2.4c-1.6-.9-3.7-2.4-4.8-3.3-1.1-.8-5.6-4.1-10-7.2-4.4-3.2-8.1-6.1-8.3-6.5-.2-.4-.8-.8-1.3-.8s-3.2-1.7-5.8-3.8c-2.7-2-9.1-6.6-14.2-10.2-5-3.6-9.7-7-10.3-7.5-.7-.6-1.9-1.5-2.8-2-3.1-1.9-18.3-12.9-19.6-14.2-.7-.6-4.3-2.7-7.9-4.5-6-2.9-7.7-3.3-15.3-3.3-7.5-.1-8.9-.4-11-2.3-1.3-1.2-3-2.2-3.7-2.2-.7 0-1.3-.5-1.3-1 0-.6-.8-1-1.8-1s-2.2-.4-2.8-1c-1-1-12.8-2-15.9-1.3z"/></svg>