<svg xmlns="http://www.w3.org/2000/svg" viewBox="0 0 200 183">
  <g transform="translate(0 -7)" fill="none" fill-rule="evenodd">
    <g transform="translate(0 43.265)">
      <ellipse fill="#E2E6E8" cx="100" cy="108.122" rx="100" ry="38.367"/>
      <path fill="#FFF" fill-rule="nonzero" d="M155.918 115.918H44.082v-86.53h111.836zM46.53 23.673L62.14 0h75.72l15.61 23.673H46.53z"/>
    </g>
    <path d="M60.559 36.735h78.882a3.28 3.28 0 012.616 1.305l.12.168 19.72 29.765c.32.482.507 1.04.545 1.616l.007.217v92.601a3.298 3.298 0 01-3.1 3.302l-.187.005H40.838a3.295 3.295 0 01-3.282-3.12l-.005-.187v-92.6c0-.581.152-1.15.438-1.65l.114-.184 19.72-29.765a3.282 3.282 0 012.53-1.467l.206-.006h78.882zm95.316 36.379H44.125V159.1h111.75V73.114zM86.572 133.06h26.254a3.307 3.307 0 01.188 6.61l-.188.005H86.572a3.307 3.307 0 01-.187-6.61l.187-.005h26.254zm-26.981-85.6L46.978 66.5H59.59V47.462zm75.919-4.112H66.122v23.15h69.388v-23.15zm6.53 6.576v16.574h10.982L142.04 49.925zm33.417-16.688a3.265 3.265 0 01-1.952 4.185l-9.205 3.35a3.265 3.265 0 11-2.234-6.136l9.205-3.35a3.265 3.265 0 014.186 1.95zm-19.75-17.624a3.265 3.265 0 115.35 3.746l-5.618 8.024a3.265 3.265 0 11-5.35-3.745zM138.53 7.381a3.265 3.265 0 013.265 3.265v9.796a3.265 3.265 0 01-6.53 0v-9.796a3.265 3.265 0 013.265-3.265z" fill="#B8C2CA" fill-rule="nonzero"/>
    <circle fill="#B6C2CB" cx="79.633" cy="97.592" r="4.531"/>
    <circle fill="#B6C2CB" cx="118" cy="97.592" r="4.531"/>
  </g>
</svg>
