<svg xmlns="http://www.w3.org/2000/svg">
  <defs>
    <svg id="search" height="24" viewBox="0 0 24 24" width="24"><path d="M15.5 14h-.79l-.28-.27C15.41 12.59 16 11.11 16 9.5 16 5.91 13.09 3 9.5 3S3 5.91 3 9.5 5.91 16 9.5 16c1.61 0 3.09-.59 4.23-1.57l.27.28v.79l5 4.99L20.49 19l-4.99-5zm-6 0C7.01 14 5 11.99 5 9.5S7.01 5 9.5 5 14 7.01 14 9.5 11.99 14 9.5 14z"/><path d="M0 0h24v24H0z" fill="none"/></svg>
    <svg id="edit" height="24" viewBox="0 0 24 24" width="24"><path d="M3 17.25V21h3.75L17.81 9.94l-3.75-3.75L3 17.25zM20.71 7.04c.39-.39.39-1.02 0-1.41l-2.34-2.34c-.39-.39-1.02-.39-1.41 0l-1.83 1.83 3.75 3.75 1.83-1.83z"/><path d="M0 0h24v24H0z" fill="none"/></svg>
    <svg id="plus" width="24" height="24" viewBox="0 0 24 24"><path d="M19,13H13V19H11V13H5V11H11V5H13V11H19V13Z"/></svg>
    <svg id="minus" width="24" height="24" viewBox="0 0 24 24"><path d="M19,13H5V11H19V13Z"/></svg>
    <svg id="copy" width="24" height="24" viewBox="0 0 24 24"><path d="M19,21H8V7H19M19,5H8A2,2 0 0,0 6,7V21A2,2 0 0,0 8,23H19A2,2 0 0,0 21,21V7A2,2 0 0,0 19,5M16,1H4A2,2 0 0,0 2,3V17H4V3H16V1Z"/></svg>
    <svg id="alert" width="24" height="24" viewBox="0 0 24 24"><path d="M13,14H11V10H13M13,18H11V16H13M1,21H23L12,2L1,21Z"/></svg>
    <svg id="information" width="24" height="24" viewBox="0 0 24 24"><path d="M13,9H11V7H13M13,17H11V11H13M12,2A10,10 0 0,0 2,12A10,10 0 0,0 12,22A10,10 0 0,0 22,12A10,10 0 0,0 12,2Z"/></svg>
    <svg id="close" width="24" height="24" viewBox="0 0 24 24"><path d="M19,6.41L17.59,5L12,10.59L6.41,5L5,6.41L10.59,12L5,17.59L6.41,19L12,13.41L17.59,19L19,17.59L13.41,12L19,6.41Z"/></svg>
  </defs>
</svg>
