<svg xmlns="http://www.w3.org/2000/svg" viewBox="0 0 240 220">
  <g transform="translate(0 -8)" fill="none" fill-rule="evenodd">
    <g transform="translate(0 51.918)">
      <ellipse fill="#E2E6E8" cx="120" cy="129.747" rx="120" ry="46.041"/>
      <path fill="#FFF" fill-rule="nonzero" d="M187.102 139.102H52.898V35.265h134.204zM55.837 28.408L74.568 0h90.864l18.731 28.408H55.837z"/>
    </g>
    <path d="M72.67 44.082h94.66c1.24 0 2.404.587 3.147 1.577l.134.19 23.665 35.718c.384.579.609 1.248.654 1.94l.009.26V194.89c0 2.124-1.657 3.857-3.741 3.963l-.203.005H49.005c-2.11 0-3.833-1.667-3.939-3.764l-.005-.204V83.768c0-.697.183-1.38.526-1.98l.137-.22L69.389 45.85a3.939 3.939 0 013.05-1.762l.231-.006h94.66zm114.38 43.654H52.95V190.92h134.1V87.736zm-83.163 71.937h31.504a3.969 3.969 0 01.198 7.933l-.198.005h-31.504a3.969 3.969 0 01-.198-7.933l.198-.005h31.504zM71.509 56.955L56.373 79.799h15.136V56.955zm98.94 2.956v19.888h13.178l-13.179-19.888zm-7.837-7.892H79.346v27.78h83.266v-27.78zm47.936-12.135a3.918 3.918 0 01-2.342 5.022l-11.046 4.02a3.918 3.918 0 01-2.68-7.363l11.046-4.02a3.918 3.918 0 015.022 2.341zm-23.699-21.148a3.918 3.918 0 116.42 4.495l-6.743 9.629a3.918 3.918 0 11-6.42-4.495zm-20.613-9.88a3.918 3.918 0 013.919 3.92V24.53a3.918 3.918 0 01-7.837 0V12.775a3.918 3.918 0 013.918-3.918z" fill="#B8C2CA" fill-rule="nonzero"/>
    <circle fill="#B6C2CB" cx="95.559" cy="117.11" r="5.437"/>
    <circle fill="#B6C2CB" cx="141.6" cy="117.11" r="5.437"/>
  </g>
</svg>
