<svg xmlns="http://www.w3.org/2000/svg" viewBox="0 0 226 144">
  <g fill="none" fill-rule="evenodd">
    <path d="M44.892 64.615h136.216a10 10 0 018.619 4.929l34.403 58.461c2.802 4.76 1.214 10.89-3.546 13.69a10 10 0 01-5.072 1.382H10.488c-5.523 0-10-4.477-10-10a10 10 0 011.382-5.072l34.403-58.461a10 10 0 018.619-4.929z" fill="#E2E6E8"/>
    <g fill="#FFF" fill-rule="nonzero">
      <path d="M166.077 115.385H60.692V33.846h105.385zM116.077 6.154h32.983l14.71 22.308h-47.693zM77.71 6.154h32.982v22.308H63z"/>
    </g>
    <path d="M171.71 29.436L153.127 1.388A3.092 3.092 0 00150.551 0H76.219c-1.035 0-2.003.52-2.577 1.388L55.059 29.436a3.126 3.126 0 00-.52 1.728v87.258a3.106 3.106 0 003.097 3.116h111.498a3.106 3.106 0 003.097-3.116V31.164c0-.616-.181-1.217-.52-1.728zM116.482 6.233h32.412l14.454 21.814h-46.866V6.233zm-38.606 0h32.411v21.814H63.421L77.876 6.233zm88.16 109.073H60.733V34.28h105.303v81.026zm-43.36-37.397H73.121v6.233h49.555v-6.233zm-18.583 15.582H73.121v6.233h30.972V93.49z" fill="#B8C2CA" fill-rule="nonzero"/>
  </g>
</svg>
