<svg xmlns="http://www.w3.org/2000/svg" xmlns:xlink="http://www.w3.org/1999/xlink" viewBox="0 0 240 168">
  <defs>
    <path id="a" d="M0 0h170v138.462H0z"/>
  </defs>
  <g fill="none" fill-rule="evenodd">
    <path d="M120 110.77c66.274 0 120 12.742 120 28.46 0 15.72-53.726 28.462-120 28.462S0 154.95 0 139.231c0-8.576 15.991-16.266 41.287-21.484l-.037.225 25.689 13.648 3.08-18.272c1.897-.207 3.82-.402 5.769-.585l-3.29 19.165-.162.884 34.548-2.02 3.439-19.932c3.192-.06 6.42-.09 9.677-.09z" fill="#E2E6E8"/>
    <g transform="translate(35.385)">
      <mask id="b" fill="#fff">
        <use xlink:href="#a"/>
      </mask>
      <path d="M59.687 14.32l19.756 6.008-.093 31.016-19.73-6.013.067-31.01zm25.93-9.216l16.745 4.836-20.367 5.886-15.956-4.906 19.578-5.816zm23.245 39.122l-24.426 7.04.084-30.886 24.42-7.065-.078 30.911zm-52.553 5.267l24.836 7.594c.329.096.67.122 1.01.084l.404-.05 29.521-8.523a2.543 2.543 0 001.833-2.421l.102-36.21c0-.797-.376-1.55-1.01-2.026a1.77 1.77 0 00-.814-.364L86.292.085a2.76 2.76 0 00-1.434.02L56.425 8.522c-.285.07-.555.189-.803.352a2.543 2.543 0 00-1.036 2.02l-.081 36.18a2.54 2.54 0 001.804 2.419zm79.28 63.67l-.414-3.04-4.609-32.836 28.005-12.032 5.013 35.794-27.996 12.114zm-30.03-3.433l-5.014-35.742 24.682 3.967 5.01 35.745-24.679-3.97zM129.605 59.6l21.336 3.083-23.57 10.161-20.487-3.273 22.721-9.971zm33.83 1.441a2.674 2.674 0 00-1.338-1.985 4.039 4.039 0 00-.931-.261l-31.535-4.63a2.506 2.506 0 00-1.475.096L96.274 68.32a3.013 3.013 0 00-.83.512 2.677 2.677 0 00-.765 2.282l5.825 41.255a2.694 2.694 0 002.223 2.279l30.26 4.87.588-.037c.311-.023.617-.096.902-.22l33.108-14.222a2.685 2.685 0 001.627-2.795l-5.776-41.204zM71.5 130.792l-34.549 2.02.163-.884 6.68-38.904 34.587-2.113-6.881 39.88zM12.82 78.303l25.415 13.704-6.68 39.613-25.69-13.648 6.954-39.669zm58.683 7.55l-29.434 1.794-21.487-11.486 28.41-1.959 22.51 11.652zm11.481-.278L50.859 68.933a2.585 2.585 0 00-1.478-.3l-38.846 2.651a3.35 3.35 0 00-1.036.207 2.774 2.774 0 00-1.518 2.031L.046 118.934a2.78 2.78 0 001.411 2.947l30.77 16.514.136-.024.273-.055c.265.087.545.14.824.146l.192-.038 40.286-2.372.358-.07a2.777 2.777 0 002.211-2.252l7.926-45.444a2.578 2.578 0 00-1.487-2.9l.038.189z" fill="#B8C2CA" mask="url(#b)"/>
    </g>
  </g>
</svg>
