<svg xmlns="http://www.w3.org/2000/svg" viewBox="0 0 178 145">
  <g transform="translate(0 4)" fill="none" fill-rule="evenodd">
    <ellipse fill="#E2E6E8" cx="89" cy="110.5" rx="81" ry="30.5"/>
    <path fill="#FFF" fill-rule="nonzero" d="M77.16 2.849h25.87L115.512 26v93.478H64.918l-.816-91.54z"/>
    <path d="M89.5 0H75.649a1 1 0 00-.913.592l-12.15 27.213a1 1 0 00-.086.408v90.265a1 1 0 001 1h52.061a1 1 0 001-1V29.5h0v-1.287" stroke="#B8C2CA" stroke-width="7"/>
    <path d="M89.5 0h13.913a1 1 0 01.913.592l12.148 27.213a1 1 0 01.087.408v.652h0" stroke="#B8C2CA" stroke-width="7"/>
    <path fill="#B6C2CB" d="M86 1h6.53v26.939H86z"/>
    <path fill="#B6C2CB" d="M118.735 25.204v6.53h-58v-6.53z"/>
    <path d="M80.5 93c2.696-1.441 5.547-2.162 8.553-2.162 3.006 0 6.155.721 9.447 2.162" stroke="#B8C2CA" stroke-width="6" stroke-linecap="round" stroke-linejoin="round"/>
    <circle fill="#B6C2CB" cx="79.531" cy="57.031" r="4.531"/>
    <circle fill="#B6C2CB" cx="99.531" cy="57.031" r="4.531"/>
    <path d="M44.983 64.096l-14.187-14.12c-1.308-1.301-3.487-1.301-4.794 0-1.307 1.301-1.307 3.47 0 4.771l8.377 8.386H3.389A3.36 3.36 0 000 66.506a3.36 3.36 0 003.39 3.374h30.989l-8.377 8.337c-1.307 1.301-1.307 3.47 0 4.771A3.421 3.421 0 0028.423 84c.872 0 1.743-.337 2.421-1.012l14.14-14.072A3.423 3.423 0 0046 66.506c0-.916-.339-1.783-1.017-2.41zM133.017 64.096l14.187-14.12c1.308-1.301 3.487-1.301 4.794 0 1.307 1.301 1.307 3.47 0 4.771l-8.377 8.386h30.99A3.36 3.36 0 01178 66.506a3.36 3.36 0 01-3.39 3.374h-30.989l8.377 8.337c1.307 1.301 1.307 3.47 0 4.771A3.421 3.421 0 01149.577 84a3.421 3.421 0 01-2.421-1.012l-14.14-14.072a3.423 3.423 0 01-1.016-2.41c0-.916.339-1.783 1.017-2.41z" fill="#E2E6E8" fill-rule="nonzero"/>
    <rect fill="#B6C2CB" transform="matrix(1 0 0 -1 0 27)" x="131" y="4" width="6.531" height="19" rx="3.265"/>
    <rect fill="#B6C2CB" transform="matrix(1 0 0 -1 0 59)" x="131" y="26" width="6.531" height="7" rx="3.265"/>
  </g>
</svg>
